<svg width="33" height="33" viewBox="0 0 33 33" fill="none" xmlns="http://www.w3.org/2000/svg">
<path d="M2.75 23.65V16.5C2.75 8.90608 8.90608 2.75 16.5 2.75C24.0939 2.75 30.25 8.90609 30.25 16.5V28.875" stroke="#333333" stroke-width="2" stroke-linecap="round" stroke-linejoin="round"/>
<path d="M6.875 25.7321V23.375V16.0783C6.875 15.1884 7.03811 14.3061 7.35625 13.475M26.125 16.3036C26.125 13.4875 24.8647 10.9598 22.8665 9.23214C21.1698 7.76514 18.941 6.875 16.5 6.875C13.6309 6.875 11.0549 8.10477 9.29153 10.0556" stroke="#333333" stroke-width="2" stroke-linecap="round" stroke-linejoin="round"/>
<path d="M11 17.875V16.5C11 13.4624 13.4624 11 16.5 11C19.5376 11 22 13.4624 22 16.5" stroke="#333333" stroke-width="2" stroke-linecap="round" stroke-linejoin="round"/>
<path d="M16.5 16.5V17.875C16.5 19.3938 17.7312 20.625 19.25 20.625C20.7688 20.625 22 19.3938 22 17.875V16.5" stroke="#333333" stroke-width="2" stroke-linecap="round" stroke-linejoin="round"/>
<path d="M11 17.05V17.1875C11 21.3642 14.3858 24.75 18.5625 24.75C22.7392 24.75 26.125 21.3642 26.125 17.1875V16.5" stroke="#333333" stroke-width="2" stroke-linecap="round" stroke-linejoin="round"/>
<path d="M23.8339 27.5C22.4447 28.3894 20.7933 28.905 19.0214 28.905C18.1458 28.905 17.2996 28.7777 16.5 28.5406" stroke="#333333" stroke-width="2" stroke-linecap="round" stroke-linejoin="round"/>
<path d="M11 26.125V27.5" stroke="#333333" stroke-width="2" stroke-linecap="round" stroke-linejoin="round"/>
</svg>
