<svg width="27" height="27" viewBox="0 0 27 27" fill="none" xmlns="http://www.w3.org/2000/svg">
<path d="M13.5 23.6252L11.8687 22.1627C9.975 20.4564 8.40937 18.9846 7.17188 17.7471C5.93437 16.5096 4.95 15.3986 4.21875 14.4143C3.4875 13.4299 2.97656 12.5252 2.68594 11.7002C2.39531 10.8752 2.25 10.0314 2.25 9.16895C2.25 7.40645 2.84062 5.93457 4.02187 4.75332C5.20312 3.57207 6.675 2.98145 8.4375 2.98145C9.4125 2.98145 10.3406 3.1877 11.2219 3.6002C12.1031 4.0127 12.8625 4.59395 13.5 5.34395C14.1375 4.59395 14.8969 4.0127 15.7781 3.6002C16.6594 3.1877 17.5875 2.98145 18.5625 2.98145C20.325 2.98145 21.7969 3.57207 22.9781 4.75332C24.1594 5.93457 24.75 7.40645 24.75 9.16895C24.75 10.0314 24.6047 10.8752 24.3141 11.7002C24.0234 12.5252 23.5125 13.4299 22.7812 14.4143C22.05 15.3986 21.0656 16.5096 19.8281 17.7471C18.5906 18.9846 17.025 20.4564 15.1312 22.1627L13.5 23.6252ZM13.5 20.5877C15.3 18.9752 16.7812 17.5924 17.9437 16.4393C19.1062 15.2861 20.025 14.283 20.7 13.4299C21.375 12.5768 21.8438 11.8174 22.1062 11.1518C22.3687 10.4861 22.5 9.8252 22.5 9.16895C22.5 8.04395 22.125 7.10645 21.375 6.35645C20.625 5.60645 19.6875 5.23145 18.5625 5.23145C17.6812 5.23145 16.8656 5.47988 16.1156 5.97676C15.3656 6.47363 14.85 7.10645 14.5687 7.8752H12.4312C12.15 7.10645 11.6344 6.47363 10.8844 5.97676C10.1344 5.47988 9.31875 5.23145 8.4375 5.23145C7.3125 5.23145 6.375 5.60645 5.625 6.35645C4.875 7.10645 4.5 8.04395 4.5 9.16895C4.5 9.8252 4.63125 10.4861 4.89375 11.1518C5.15625 11.8174 5.625 12.5768 6.3 13.4299C6.975 14.283 7.89375 15.2861 9.05625 16.4393C10.2187 17.5924 11.7 18.9752 13.5 20.5877Z" fill="#E3E3E3"/>
</svg>
