<svg width="24" height="24" viewBox="0 0 24 24" fill="none" xmlns="http://www.w3.org/2000/svg">
<path d="M7.00001 20.0003V8.97526C7.00001 8.42526 7.20001 7.95859 7.60001 7.57526C8.00001 7.19192 8.47501 7.00026 9.02501 7.00026H20C20.55 7.00026 21.0208 7.19609 21.4125 7.58776C21.8042 7.97942 22 8.45026 22 9.00026V17.0003L17 22.0003H9.00001C8.45001 22.0003 7.97918 21.8044 7.58751 21.4128C7.19585 21.0211 7.00001 20.5503 7.00001 20.0003ZM2.02501 6.25026C1.92501 5.70026 2.03335 5.20442 2.35001 4.76276C2.66668 4.32109 3.10001 4.05026 3.65001 3.95026L14.5 2.02526C15.05 1.92526 15.5458 2.03359 15.9875 2.35026C16.4292 2.66692 16.7 3.10026 16.8 3.65026L17.05 5.00026H15L14.825 4.00026L4.00001 5.92526L5.00001 11.5753V18.5503C4.73335 18.4003 4.50418 18.2003 4.31251 17.9503C4.12085 17.7003 4.00001 17.4169 3.95001 17.1003L2.02501 6.25026ZM9.00001 9.00026V20.0003H16V16.0003H20V9.00026H9.00001Z" fill="#002116"/>
</svg>
