<svg width="27" height="27" viewBox="0 0 27 27" fill="none" xmlns="http://www.w3.org/2000/svg">
<path d="M20.25 23.625H7.875V9L15.75 1.125L17.1562 2.53125C17.2875 2.6625 17.3953 2.84062 17.4797 3.06562C17.5641 3.29062 17.6062 3.50625 17.6062 3.7125V4.10625L16.3687 9H23.625C24.225 9 24.75 9.225 25.2 9.675C25.65 10.125 25.875 10.65 25.875 11.25V13.5C25.875 13.6312 25.8562 13.7719 25.8187 13.9219C25.7812 14.0719 25.7437 14.2125 25.7062 14.3438L22.3312 22.275C22.1625 22.65 21.8813 22.9688 21.4875 23.2312C21.0938 23.4937 20.6812 23.625 20.25 23.625ZM10.125 21.375H20.25L23.625 13.5V11.25H13.5L15.0187 5.0625L10.125 9.95625V21.375ZM7.875 9V11.25H4.5V21.375H7.875V23.625H2.25V9H7.875Z" fill="#E3E3E3"/>
</svg>
