<svg width="27" height="27" viewBox="0 0 27 27" fill="none" xmlns="http://www.w3.org/2000/svg">
<path d="M19.125 24.75C18.1875 24.75 17.3906 24.4219 16.7344 23.7656C16.0781 23.1094 15.75 22.3125 15.75 21.375C15.75 21.2625 15.7781 21 15.8344 20.5875L7.93125 15.975C7.63125 16.2562 7.28437 16.4766 6.89062 16.6359C6.49687 16.7953 6.075 16.875 5.625 16.875C4.6875 16.875 3.89062 16.5469 3.23438 15.8906C2.57812 15.2344 2.25 14.4375 2.25 13.5C2.25 12.5625 2.57812 11.7656 3.23438 11.1094C3.89062 10.4531 4.6875 10.125 5.625 10.125C6.075 10.125 6.49687 10.2047 6.89062 10.3641C7.28437 10.5234 7.63125 10.7437 7.93125 11.025L15.8344 6.4125C15.7969 6.28125 15.7734 6.15469 15.7641 6.03281C15.7547 5.91094 15.75 5.775 15.75 5.625C15.75 4.6875 16.0781 3.89062 16.7344 3.23438C17.3906 2.57812 18.1875 2.25 19.125 2.25C20.0625 2.25 20.8594 2.57812 21.5156 3.23438C22.1719 3.89062 22.5 4.6875 22.5 5.625C22.5 6.5625 22.1719 7.35938 21.5156 8.01562C20.8594 8.67188 20.0625 9 19.125 9C18.675 9 18.2531 8.92031 17.8594 8.76094C17.4656 8.60156 17.1187 8.38125 16.8187 8.1L8.91562 12.7125C8.95312 12.8438 8.97656 12.9703 8.98594 13.0922C8.99531 13.2141 9 13.35 9 13.5C9 13.65 8.99531 13.7859 8.98594 13.9078C8.97656 14.0297 8.95312 14.1562 8.91562 14.2875L16.8187 18.9C17.1187 18.6187 17.4656 18.3984 17.8594 18.2391C18.2531 18.0797 18.675 18 19.125 18C20.0625 18 20.8594 18.3281 21.5156 18.9844C22.1719 19.6406 22.5 20.4375 22.5 21.375C22.5 22.3125 22.1719 23.1094 21.5156 23.7656C20.8594 24.4219 20.0625 24.75 19.125 24.75ZM19.125 22.5C19.4438 22.5 19.7109 22.3922 19.9266 22.1766C20.1422 21.9609 20.25 21.6938 20.25 21.375C20.25 21.0562 20.1422 20.7891 19.9266 20.5734C19.7109 20.3578 19.4438 20.25 19.125 20.25C18.8062 20.25 18.5391 20.3578 18.3234 20.5734C18.1078 20.7891 18 21.0562 18 21.375C18 21.6938 18.1078 21.9609 18.3234 22.1766C18.5391 22.3922 18.8062 22.5 19.125 22.5ZM5.625 14.625C5.94375 14.625 6.21094 14.5172 6.42656 14.3016C6.64219 14.0859 6.75 13.8187 6.75 13.5C6.75 13.1812 6.64219 12.9141 6.42656 12.6984C6.21094 12.4828 5.94375 12.375 5.625 12.375C5.30625 12.375 5.03906 12.4828 4.82344 12.6984C4.60781 12.9141 4.5 13.1812 4.5 13.5C4.5 13.8187 4.60781 14.0859 4.82344 14.3016C5.03906 14.5172 5.30625 14.625 5.625 14.625ZM19.125 6.75C19.4438 6.75 19.7109 6.64219 19.9266 6.42656C20.1422 6.21094 20.25 5.94375 20.25 5.625C20.25 5.30625 20.1422 5.03906 19.9266 4.82344C19.7109 4.60781 19.4438 4.5 19.125 4.5C18.8062 4.5 18.5391 4.60781 18.3234 4.82344C18.1078 5.03906 18 5.30625 18 5.625C18 5.94375 18.1078 6.21094 18.3234 6.42656C18.5391 6.64219 18.8062 6.75 19.125 6.75Z" fill="#E3E3E3"/>
</svg>
