<svg width="144" height="144" viewBox="0 0 144 144" fill="none" xmlns="http://www.w3.org/2000/svg">
<circle cx="71.631" cy="71.631" r="71.631" fill="#23A26D" fill-opacity="0.12"/>
<path d="M70.3519 37.5208C51.5573 37.5208 36.2419 52.8361 36.2419 71.6307C36.2419 90.4254 51.5573 105.741 70.3519 105.741C89.1465 105.741 104.462 90.4254 104.462 71.6307C104.462 52.8361 89.1465 37.5208 70.3519 37.5208ZM86.6565 63.7854L67.3161 83.1258C66.8386 83.6034 66.1905 83.8762 65.5083 83.8762C64.8261 83.8762 64.178 83.6034 63.7005 83.1258L54.0474 73.4727C53.0582 72.4835 53.0582 70.8462 54.0474 69.857C55.0365 68.8678 56.6738 68.8678 57.663 69.857L65.5083 77.7023L83.0409 60.1698C84.03 59.1806 85.6673 59.1806 86.6565 60.1698C87.6457 61.159 87.6457 62.7621 86.6565 63.7854Z" fill="#23A26D"/>
</svg>
