<svg width="18" height="18" viewBox="0 0 18 18" fill="none" xmlns="http://www.w3.org/2000/svg">
<path d="M10.975 13.025L12.025 11.975L9.25 9.2V5.75H7.75V9.8L10.975 13.025ZM8.5 17C7.4625 17 6.4875 16.8031 5.575 16.4094C4.6625 16.0156 3.86875 15.4813 3.19375 14.8063C2.51875 14.1313 1.98438 13.3375 1.59063 12.425C1.19688 11.5125 1 10.5375 1 9.5C1 8.4625 1.19688 7.4875 1.59063 6.575C1.98438 5.6625 2.51875 4.86875 3.19375 4.19375C3.86875 3.51875 4.6625 2.98438 5.575 2.59063C6.4875 2.19688 7.4625 2 8.5 2C9.5375 2 10.5125 2.19688 11.425 2.59063C12.3375 2.98438 13.1313 3.51875 13.8063 4.19375C14.4813 4.86875 15.0156 5.6625 15.4094 6.575C15.8031 7.4875 16 8.4625 16 9.5C16 10.5375 15.8031 11.5125 15.4094 12.425C15.0156 13.3375 14.4813 14.1313 13.8063 14.8063C13.1313 15.4813 12.3375 16.0156 11.425 16.4094C10.5125 16.8031 9.5375 17 8.5 17ZM8.5 15.5C10.1625 15.5 11.5781 14.9156 12.7469 13.7469C13.9156 12.5781 14.5 11.1625 14.5 9.5C14.5 7.8375 13.9156 6.42188 12.7469 5.25313C11.5781 4.08438 10.1625 3.5 8.5 3.5C6.8375 3.5 5.42188 4.08438 4.25313 5.25313C3.08438 6.42188 2.5 7.8375 2.5 9.5C2.5 11.1625 3.08438 12.5781 4.25313 13.7469C5.42188 14.9156 6.8375 15.5 8.5 15.5Z" fill="#0B2F23"/>
</svg>
